<svg width="23" height="22" viewBox="0 0 23 22" fill="none" xmlns="http://www.w3.org/2000/svg">
<path d="M21.6666 17.3283V10.5388C21.6666 9.88489 21.6661 9.55775 21.5848 9.25347C21.5129 8.98381 21.3947 8.72863 21.2348 8.49804C21.0544 8.23783 20.8036 8.02204 20.3009 7.59144L14.3009 2.45154C13.3676 1.65206 12.901 1.25253 12.3759 1.10048C11.9131 0.966506 11.4199 0.966506 10.9572 1.10048C10.4324 1.25241 9.96644 1.65157 9.03458 2.44984L3.03259 7.59144C2.52993 8.02205 2.27918 8.23783 2.09875 8.49804C1.93887 8.72863 1.81981 8.98381 1.74784 9.25347C1.66663 9.55775 1.66663 9.88488 1.66663 10.5388V17.3283C1.66663 18.4687 1.66663 19.0387 1.85693 19.4885C2.11066 20.0882 2.59702 20.5653 3.20959 20.8137C3.66902 21 4.25145 21 5.4163 21C6.58116 21 7.16423 21 7.62366 20.8137C8.23623 20.5653 8.72246 20.0883 8.9762 19.4886C9.1665 19.0388 9.16663 18.4686 9.16663 17.3282V16.1044C9.16663 14.7526 10.2859 13.6568 11.6666 13.6568C13.0473 13.6568 14.1666 14.7526 14.1666 16.1044V17.3282C14.1666 18.4686 14.1666 19.0388 14.3569 19.4886C14.6107 20.0883 15.097 20.5653 15.7096 20.8137C16.169 21 16.7515 21 17.9163 21C19.0812 21 19.6642 21 20.1237 20.8137C20.7362 20.5653 21.2225 20.0882 21.4762 19.4885C21.6665 19.0387 21.6666 18.4687 21.6666 17.3283Z" stroke="#231E1C" stroke-width="1.4" stroke-linecap="round" stroke-linejoin="round"/>
</svg>
