<svg width="21" height="22" viewBox="0 0 21 22" fill="none" xmlns="http://www.w3.org/2000/svg">
<path d="M12.33 20.3663L18.0046 17.113C18.6103 16.7658 18.9126 16.5921 19.1329 16.3492C19.3278 16.1342 19.4751 15.881 19.5651 15.606C19.6666 15.2958 19.6666 14.9492 19.6666 14.2579V7.74191C19.6666 7.0506 19.6666 6.70403 19.5651 6.39386C19.4751 6.11878 19.3278 5.8654 19.1329 5.65045C18.9135 5.40858 18.6119 5.23566 18.0114 4.89137L12.329 1.63364C11.7232 1.28636 11.421 1.11307 11.099 1.0451C10.8141 0.984966 10.5195 0.984966 10.2346 1.0451C9.91258 1.11307 9.60929 1.28636 9.00353 1.63364L3.32795 4.88748C2.72289 5.23436 2.4206 5.40767 2.20046 5.65045C2.00555 5.8654 1.85836 6.11878 1.76835 6.39386C1.66663 6.70476 1.66663 7.05223 1.66663 7.7468V14.2533C1.66663 14.9478 1.66663 15.2951 1.76835 15.606C1.85836 15.881 2.00555 16.1342 2.20046 16.3492C2.42073 16.5921 2.72325 16.7658 3.32901 17.113L9.00353 20.3663C9.60928 20.7136 9.91258 20.8869 10.2346 20.9549C10.5195 21.015 10.8141 21.015 11.099 20.9549C11.421 20.8869 11.7243 20.7136 12.33 20.3663Z" stroke="#231E1C" stroke-width="1.4" stroke-linecap="round" stroke-linejoin="round"/>
<path d="M7.5489 10.9999C7.5489 12.7097 8.94475 14.0958 10.6666 14.0958C12.3885 14.0958 13.7844 12.7097 13.7844 10.9999C13.7844 9.29008 12.3885 7.90401 10.6666 7.90401C8.94475 7.90401 7.5489 9.29008 7.5489 10.9999Z" stroke="#231E1C" stroke-width="1.4" stroke-linecap="round" stroke-linejoin="round"/>
</svg>
