<svg width="22" height="22" viewBox="0 0 22 22" fill="none" xmlns="http://www.w3.org/2000/svg">
<path d="M0.833313 7.66667V19.2222C0.833313 19.8445 0.833313 20.1554 0.954415 20.3931C1.06094 20.6022 1.23079 20.7725 1.43986 20.879C1.6773 21 1.9883 21 2.60935 21H14.1666M16.3887 6.55556L11.9443 11L9.7221 8.77778M5.2777 13.0002V4.55577C5.2777 3.31121 5.2777 2.68847 5.51991 2.21311C5.73296 1.79497 6.07266 1.45526 6.4908 1.24221C6.96615 1 7.58889 1 8.83344 1H17.2778C18.5223 1 19.1443 1 19.6196 1.24221C20.0378 1.45526 20.3781 1.79497 20.5911 2.21311C20.8333 2.68846 20.8333 3.31077 20.8333 4.55531L20.8333 12.9998C20.8333 14.2443 20.8333 14.8666 20.5911 15.342C20.3781 15.7601 20.0378 16.1005 19.6196 16.3136C19.1447 16.5556 18.5236 16.5556 17.2815 16.5556H8.82978C7.58767 16.5556 6.96569 16.5556 6.4908 16.3136C6.07266 16.1005 5.73296 15.7602 5.51991 15.3421C5.2777 14.8667 5.2777 14.2448 5.2777 13.0002Z" stroke="#231E1C" stroke-width="1.4" stroke-linecap="round" stroke-linejoin="round"/>
</svg>
